<svg id="visual" viewBox="0 0 1920 830" width="1920" height="830" xmlns="http://www.w3.org/2000/svg" xmlns:xlink="http://www.w3.org/1999/xlink" version="1.1"><g stroke-width="1" stroke-linejoin="bevel"><path d="M1073.7 446L1049.7 643.5L1251 605.5Z" fill="#005ae0" stroke="#005ae0"></path><path d="M1251 605.5L1287 434L1073.7 446Z" fill="#004bba" stroke="#004bba"></path><path d="M1049.7 643.5L1062.7 830L1251 605.5Z" fill="#0057d8" stroke="#0057d8"></path><path d="M1073.7 446L831.3 620.5L1049.7 643.5Z" fill="#0060ef" stroke="#0060ef"></path><path d="M1049.7 643.5L849.3 830L1062.7 830Z" fill="#0054d1" stroke="#0054d1"></path><path d="M1062.7 830L1291 830L1251 605.5Z" fill="#005de7" stroke="#005de7"></path><path d="M1251 605.5L1484.3 635.5L1287 434Z" fill="#0060ef" stroke="#0060ef"></path><path d="M1036.7 196.5L839.3 388L1073.7 446Z" fill="#005de7" stroke="#005de7"></path><path d="M1073.7 446L839.3 388L831.3 620.5Z" fill="#005ae0" stroke="#005ae0"></path><path d="M1291 830L1484.3 635.5L1251 605.5Z" fill="#0063f6" stroke="#0063f6"></path><path d="M1484.3 635.5L1474.3 427L1287 434Z" fill="#0060ef" stroke="#0060ef"></path><path d="M1277 182.5L1036.7 196.5L1073.7 446Z" fill="#004ec2" stroke="#004ec2"></path><path d="M1277 182.5L1073.7 446L1287 434Z" fill="#0051c9" stroke="#0051c9"></path><path d="M1486.3 236.5L1277 182.5L1287 434Z" fill="#0060ef" stroke="#0060ef"></path><path d="M831.3 620.5L849.3 830L1049.7 643.5Z" fill="#0166fe" stroke="#0166fe"></path><path d="M1291 830L1465.3 830L1484.3 635.5Z" fill="#0166fe" stroke="#0166fe"></path><path d="M1038.7 0L879.3 177.5L1036.7 196.5Z" fill="#004bba" stroke="#004bba"></path><path d="M1036.7 196.5L879.3 177.5L839.3 388Z" fill="#004ec2" stroke="#004ec2"></path><path d="M1693.7 440L1486.3 236.5L1474.3 427Z" fill="#0166fe" stroke="#0166fe"></path><path d="M1474.3 427L1486.3 236.5L1287 434Z" fill="#0063f6" stroke="#0063f6"></path><path d="M610 443L624 612.5L831.3 620.5Z" fill="#0166fe" stroke="#0166fe"></path><path d="M831.3 620.5L621 830L849.3 830Z" fill="#004ec2" stroke="#004ec2"></path><path d="M610 443L831.3 620.5L839.3 388Z" fill="#004bba" stroke="#004bba"></path><path d="M635 185.5L610 443L839.3 388Z" fill="#0051c9" stroke="#0051c9"></path><path d="M1684.7 830L1675.7 611.5L1484.3 635.5Z" fill="#004bba" stroke="#004bba"></path><path d="M1484.3 635.5L1675.7 611.5L1474.3 427Z" fill="#0166fe" stroke="#0166fe"></path><path d="M1254 0L1038.7 0L1036.7 196.5Z" fill="#0057d8" stroke="#0057d8"></path><path d="M879.3 177.5L635 185.5L839.3 388Z" fill="#0048b3" stroke="#0048b3"></path><path d="M1254 0L1036.7 196.5L1277 182.5Z" fill="#0060ef" stroke="#0060ef"></path><path d="M1510.3 0L1254 0L1277 182.5Z" fill="#004ec2" stroke="#004ec2"></path><path d="M1675.7 611.5L1693.7 440L1474.3 427Z" fill="#005ae0" stroke="#005ae0"></path><path d="M1486.3 236.5L1510.3 0L1277 182.5Z" fill="#0048b3" stroke="#0048b3"></path><path d="M442.7 830L621 830L624 612.5Z" fill="#0054d1" stroke="#0054d1"></path><path d="M624 612.5L621 830L831.3 620.5Z" fill="#005de7" stroke="#005de7"></path><path d="M1465.3 830L1684.7 830L1484.3 635.5Z" fill="#0060ef" stroke="#0060ef"></path><path d="M1675.7 611.5L1920 620.5L1693.7 440Z" fill="#004bba" stroke="#004bba"></path><path d="M1038.7 0L868.3 0L879.3 177.5Z" fill="#0054d1" stroke="#0054d1"></path><path d="M868.3 0L635 185.5L879.3 177.5Z" fill="#0051c9" stroke="#0051c9"></path><path d="M1920 442L1714.7 225.5L1693.7 440Z" fill="#004ec2" stroke="#004ec2"></path><path d="M1693.7 440L1714.7 225.5L1486.3 236.5Z" fill="#0054d1" stroke="#0054d1"></path><path d="M1714.7 225.5L1510.3 0L1486.3 236.5Z" fill="#0054d1" stroke="#0054d1"></path><path d="M610 443L448.7 594.5L624 612.5Z" fill="#0051c9" stroke="#0051c9"></path><path d="M439.7 442L448.7 594.5L610 443Z" fill="#005de7" stroke="#005de7"></path><path d="M414.7 212.5L439.7 442L610 443Z" fill="#004ec2" stroke="#004ec2"></path><path d="M868.3 0L638 0L635 185.5Z" fill="#0063f6" stroke="#0063f6"></path><path d="M635 185.5L414.7 212.5L610 443Z" fill="#005ae0" stroke="#005ae0"></path><path d="M237.3 830L442.7 830L448.7 594.5Z" fill="#0051c9" stroke="#0051c9"></path><path d="M448.7 594.5L442.7 830L624 612.5Z" fill="#005ae0" stroke="#005ae0"></path><path d="M1684.7 830L1920 620.5L1675.7 611.5Z" fill="#0054d1" stroke="#0054d1"></path><path d="M1920 620.5L1920 442L1693.7 440Z" fill="#0063f6" stroke="#0063f6"></path><path d="M1714.7 225.5L1723.7 0L1510.3 0Z" fill="#0048b3" stroke="#0048b3"></path><path d="M426.7 0L414.7 212.5L635 185.5Z" fill="#0051c9" stroke="#0051c9"></path><path d="M439.7 442L235.3 415L448.7 594.5Z" fill="#0060ef" stroke="#0060ef"></path><path d="M1920 211.5L1723.7 0L1714.7 225.5Z" fill="#005de7" stroke="#005de7"></path><path d="M1684.7 830L1920 830L1920 620.5Z" fill="#0051c9" stroke="#0051c9"></path><path d="M1920 442L1920 211.5L1714.7 225.5Z" fill="#004ec2" stroke="#004ec2"></path><path d="M638 0L426.7 0L635 185.5Z" fill="#004ec2" stroke="#004ec2"></path><path d="M235.3 186.5L235.3 415L414.7 212.5Z" fill="#0060ef" stroke="#0060ef"></path><path d="M414.7 212.5L235.3 415L439.7 442Z" fill="#0166fe" stroke="#0166fe"></path><path d="M197.3 617.5L237.3 830L448.7 594.5Z" fill="#0063f6" stroke="#0063f6"></path><path d="M235.3 415L197.3 617.5L448.7 594.5Z" fill="#0063f6" stroke="#0063f6"></path><path d="M1920 211.5L1920 0L1723.7 0Z" fill="#0051c9" stroke="#0051c9"></path><path d="M426.7 0L235.3 186.5L414.7 212.5Z" fill="#0054d1" stroke="#0054d1"></path><path d="M0 440L0 628.5L197.3 617.5Z" fill="#0057d8" stroke="#0057d8"></path><path d="M426.7 0L186.3 0L235.3 186.5Z" fill="#0060ef" stroke="#0060ef"></path><path d="M0 440L197.3 617.5L235.3 415Z" fill="#004ec2" stroke="#004ec2"></path><path d="M0 440L235.3 415L0 230.5Z" fill="#0063f6" stroke="#0063f6"></path><path d="M197.3 617.5L0 830L237.3 830Z" fill="#0057d8" stroke="#0057d8"></path><path d="M0 230.5L235.3 415L235.3 186.5Z" fill="#005ae0" stroke="#005ae0"></path><path d="M0 628.5L0 830L197.3 617.5Z" fill="#0054d1" stroke="#0054d1"></path><path d="M186.3 0L0 230.5L235.3 186.5Z" fill="#0051c9" stroke="#0051c9"></path><path d="M186.3 0L0 0L0 230.5Z" fill="#005ae0" stroke="#005ae0"></path></g></svg>